#!OML:ASF F:\VICON\USERDATA\INSTALL\rory3\rory3.ASF
:FULLY-SPECIFIED
:DEGREES
336
root 0.144956 17.8012 10.1332 -2.7343 0.401995 6.54987
lowerback 13.3536 2.88956 -0.2808
upperback 0.889948 3.79838 0.108641
thorax -6.56804 1.86502 -0.439982
lowerneck -23.869 5.55903 -7.04322
upperneck 34.2799 11.2263 0.934277
head 15.6837 3.91176 3.81855
rclavicle -5.1684e-015 -1.43125e-014
rhumerus -38.1976 -24.6224 -65.9873
rradius 29.5438
rwrist 9.23409
rhand -16.3399 11.1908
rfingers 7.12502
rthumb 9.87224 -18.5578
lclavicle -5.1684e-015 -1.43125e-014
lhumerus -33.147 23.0918 76.3049
lradius 33.1759
lwrist -4.04557
lhand -18.6156 26.1976
lfingers 7.12502
lthumb 7.67616 56.0383
rfemur -1.49672 -0.209036 0.357216
rtibia 34.7298
rfoot -11.1763 -16.0008
rtoes 16.3919
lfemur -6.23054 -0.23597 -22.076
ltibia 17.3447
lfoot -5.39836 -9.52739
ltoes -7.50816
337
root 0.21511 17.7922 10.1548 -2.68398 0.669475 6.54841
lowerback 13.3521 2.82485 -0.459634
upperback 0.912237 3.69001 0.171
thorax -6.55914 1.81823 -0.253096
lowerneck -23.7773 5.6219 -6.99152
upperneck 34.293 11.3064 0.893326
head 15.6719 3.9475 3.80395
rclavicle -2.98177e-015 2.38542e-015
rhumerus -37.8518 -24.6704 -66.2632
rradius 29.461
rwrist 9.6244
rhand -16.7366 11.3916
rfingers 7.12502
rthumb 9.48947 -18.3747
lclavicle -2.98177e-015 2.38542e-015
lhumerus -33.0263 22.5603 76.3977
lradius 33.8468
lwrist -3.40111
lhand -18.6128 25.8936
lfingers 7.12502
lthumb 7.67893 55.7342
rfemur -1.90238 -0.482164 0.780912
rtibia 35.1827
rfoot -11.6638 -14.2252
rtoes 14.4976
lfemur -6.56504 -0.566088 -22.3814
ltibia 18.0396
lfoot -5.72792 -9.36009
ltoes -7.64437
338
root 0.284136 17.7913 10.1811 -2.65638 0.929043 6.25415
lowerback 13.2543 2.74974 -0.382986
upperback 0.995555 3.61463 0.357976
thorax -6.42338 1.78272 -0.0775653
lowerneck -23.8869 5.64193 -7.16983
upperneck 34.4586 11.3863 1.03621
head 15.7463 3.96696 3.92063
rclavicle -5.30755e-014 -1.35174e-014
rhumerus -37.4924 -24.6717 -66.5309
rradius 29.5512
rwrist 9.7428
rhand -16.4845 11.2772
rfingers 7.12502
rthumb 9.73275 -18.4779
lclavicle -5.30755e-014 -1.35174e-014
lhumerus -32.8563 22.2034 76.5492
lradius 34.46
lwrist -2.93991
lhand -18.7335 24.7781
lfingers 7.12502
lthumb 7.56235 54.6229
rfemur -2.24623 -0.643778 1.60766
rtibia 35.6193
rfoot -12.6986 -12.6347
rtoes 12.3501
lfemur -6.89874 -0.869013 -22.3494
ltibia 18.7885
lfoot -6.01534 -9.26779
ltoes -6.8955
339
root 0.348422 17.7955 10.2081 -2.5702 1.1515 5.84475
lowerback 13.101 2.67276 -0.233079
upperback 1.02105 3.54851 0.561311
thorax -6.3146 1.74989 0.0727394
lowerneck -23.8725 5.71018 -7.21436
upperneck 34.5451 11.5017 1.07276
head 15.7713 4.01043 3.96783
rclavicle 2.51463e-014 -7.15625e-015
rhumerus -37.2534 -24.5195 -66.8854
rradius 29.8326
rwrist 9.53261
rhand -16.1044 11.0699
rfingers 7.12502
rthumb 10.0994 -18.6678
lclavicle 2.51463e-014 -7.15625e-015
lhumerus -32.7149 21.8317 76.5731
lradius 34.8587
lwrist -2.60277
lhand -18.7315 24.3482
lfingers 7.12502
lthumb 7.56428 54.1929
rfemur -2.66707 -0.708797 2.64132
rtibia 36.0879
rfoot -14.0701 -11.2021
rtoes 9.78031
lfemur -7.27086 -1.12955 -22.1728
ltibia 19.4938
lfoot -6.39868 -9.13817
ltoes -6.53812
340
root 0.406692 17.7973 10.2298 -2.49715 1.38601 5.5101
lowerback 13.11 2.59619 -0.209068
upperback 0.968095 3.46325 0.743641
thorax -6.38549 1.70979 0.264621
lowerneck -23.6853 5.83451 -6.98202
upperneck 34.533 11.6503 0.867015
head 15.7509 4.07632 3.86268
rclavicle -6.26172e-015 -3.18055e-015
rhumerus -37.1161 -24.3411 -67.2134
rradius 30.0874
rwrist 9.30152
rhand -16.1622 11.0644
rfingers 7.12502
rthumb 10.0437 -18.6759
lclavicle -6.26172e-015 -3.18055e-015
lhumerus -32.6769 21.3988 76.4859
lradius 35.121
lwrist -2.16291
lhand -19.001 24.2573
lfingers 7.12502
lthumb 7.30422 54.1112
rfemur -3.11518 -0.813319 3.65849
rtibia 36.5918
rfoot -15.4022 -10.0339
rtoes 6.93382
lfemur -7.58344 -1.39128 -22.0516
ltibia 20.0734
lfoot -6.71046 -9.00822
ltoes -6.56891
341
root 0.460446 17.8006 10.2486 -2.42227 1.5604 5.25274
lowerback 13.165 2.56911 -0.246722
upperback 0.888034 3.43009 0.851706
thorax -6.50999 1.69573 0.400804
lowerneck -23.425 5.92025 -6.6928
upperneck 34.4699 11.7025 0.666743
head 15.6982 4.11573 3.72681
rclavicle -2.21645e-014 -1.59028e-015
rhumerus -37.1036 -24.1773 -67.6013
rradius 30.4565
rwrist 8.99265
rhand -16.3698 10.9075
rfingers 7.12502
rthumb 9.84341 -18.8424
lclavicle -2.21645e-014 -1.59028e-015
lhumerus -32.6814 20.8872 76.2989
lradius 35.3504
lwrist -1.79685
lhand -19.4242 25.2646
lfingers 7.12502
lthumb 6.89564 55.1323
rfemur -3.67444 -0.961881 4.64591
rtibia 37.1375
rfoot -16.459 -9.21963
rtoes 4.59754
lfemur -7.86681 -1.49787 -21.9801
ltibia 20.5488
lfoot -6.88843 -9.00871
ltoes -5.95023
342
root 0.516848 17.8063 10.2742 -2.38159 1.76034 5.1287
lowerback 13.0821 2.51973 -0.376756
upperback 0.90743 3.35063 0.928231
thorax -6.45434 1.66213 0.573292
lowerneck -23.3344 5.96173 -6.63079
upperneck 34.4419 11.726 0.665445
head 15.6666 4.13804 3.7142
rclavicle 3.04141e-014 -1.59028e-015
rhumerus -36.9639 -23.8338 -68.1349
rradius 30.9427
rwrist 8.49768
rhand -16.3888 10.5544
rfingers 7.12502
rthumb 9.82506 -19.1964
lclavicle 3.04141e-014 -1.59028e-015
lhumerus -32.6111 20.5827 76.1023
lradius 35.5806
lwrist -1.66398
lhand -19.2729 27.0663
lfingers 7.12502
lthumb 7.04169 56.9292
rfemur -4.19912 -1.25894 5.44282
rtibia 37.7016
rfoot -17.4807 -8.42128
rtoes 3.40401
lfemur -8.02376 -1.57368 -22.0816
ltibia 20.9471
lfoot -7.08917 -9.04812
ltoes -5.64608
343
root 0.572005 17.8107 10.3012 -2.30381 2.00355 5.03023
lowerback 12.9043 2.47312 -0.516713
upperback 0.96683 3.27213 0.98617
thorax -6.30213 1.62907 0.736454
lowerneck -23.4274 5.98132 -6.63387
upperneck 34.5094 11.7394 0.750467
head 15.7102 4.14949 3.76083
rclavicle 3.57812e-015 8.74653e-015
rhumerus -36.6984 -23.6253 -68.6301
rradius 31.2712
rwrist 8.08846
rhand -16.1671 10.5991
rfingers 7.12502
rthumb 10.039 -19.1414
lclavicle 3.57812e-015 8.74653e-015
lhumerus -32.3588 20.2885 75.9909
lradius 35.7097
lwrist -1.41239
lhand -19.2805 27.6167
lfingers 7.12502
lthumb 7.03436 57.4798
rfemur -4.72366 -1.65133 6.22995
rtibia 38.228
rfoot -18.4443 -7.68383
rtoes 2.17054
lfemur -8.20255 -1.65518 -22.2076
ltibia 21.3155
lfoot -7.27843 -9.12799
ltoes -5.38427
344
root 0.620115 17.8127 10.3233 -2.15627 2.23117 4.88195
lowerback 12.7195 2.4302 -0.667403
upperback 0.981226 3.19968 1.07008
thorax -6.19557 1.59935 0.930518
lowerneck -23.4836 5.99701 -6.68364
upperneck 34.5563 11.7506 0.860499
head 15.7298 4.16061 3.82152
rclavicle -1.87852e-014 4.77083e-015
rhumerus -36.4657 -23.5084 -69.0882
rradius 31.5968
rwrist 7.91617
rhand -15.9732 10.7326
rfingers 7.12502
rthumb 10.226 -18.9988
lclavicle -1.87852e-014 4.77083e-015
lhumerus -32.0692 20.0144 75.8679
lradius 35.7179
lwrist -1.14314
lhand -19.7376 27.3046
lfingers 7.12502
lthumb 6.5931 57.182
rfemur -5.39261 -1.8886 7.18793
rtibia 38.6885
rfoot -19.3372 -7.27595
rtoes 1.66107
lfemur -8.53388 -1.78187 -22.2333
ltibia 21.7528
lfoot -7.48178 -9.18245
ltoes -5.37136
345
root 0.663627 17.8139 10.3444 -1.9795 2.48635 4.60031
lowerback 12.4905 2.34288 -0.743927
upperback 1.03138 3.08369 1.22866
thorax -6.02497 1.54693 1.17116
lowerneck -23.6757 6.02332 -6.76806
upperneck 34.6169 11.8178 0.943453
head 15.7847 4.18097 3.89503
rclavicle -2.48481e-014 -4.77083e-015
rhumerus -36.1148 -23.0559 -69.7132
rradius 32.1293
rwrist 7.4457
rhand -16.0803 10.3838
rfingers 7.12502
rthumb 10.1227 -19.3527
lclavicle -2.48481e-014 -4.77083e-015
lhumerus -31.7286 19.7916 75.7804
lradius 35.7698
lwrist -0.996543
lhand -19.7671 27.4818
lfingers 7.12502
lthumb 6.56467 57.3601
rfemur -6.13339 -2.07811 8.38631
rtibia 39.0841
rfoot -20.1296 -6.82205
rtoes 2.61587
lfemur -8.97822 -1.7937 -22.0703
ltibia 22.3045
lfoot -7.61717 -9.41267
ltoes -4.25911
346
root 0.702002 17.8091 10.3625 -1.93893 2.8001 4.23535
lowerback 12.4643 2.26851 -0.733774
upperback 1.0706 2.99535 1.372
thorax -5.97366 1.50515 1.33351
lowerneck -23.7183 6.04154 -6.66227
upperneck 34.5986 11.8134 0.913228
head 15.796 4.1876 3.86657
rclavicle 3.27995e-015 -1.90833e-014
rhumerus -35.9382 -22.5697 -70.3712
rradius 32.7947
rwrist 6.67988
rhand -16.1941 9.97742
rfingers 7.12502
rthumb 10.0129 -19.7644
lclavicle 3.27995e-015 -1.90833e-014
lhumerus -31.4425 19.2588 75.6661
lradius 35.9593
lwrist -0.851546
lhand -19.4802 27.6319
lfingers 7.12502
lthumb 6.84163 57.5013
rfemur -6.63441 -2.27361 9.69723
rtibia 39.4099
rfoot -20.8015 -6.02013
rtoes 4.02968
lfemur -9.33451 -1.76076 -21.7974
ltibia 22.9312
lfoot -7.83047 -9.70116
ltoes -3.57839
